<mxfile host="app.diagrams.net" agent="Mozilla/5.0 (Windows NT 10.0; Win64; x64) AppleWebKit/537.36 (KHTML, like Gecko) Chrome/136.0.0.0 Safari/537.36" version="27.0.1">
  <diagram id="C5RBs43oDa-KdzZeNtuy" name="Page-1">
    <mxGraphModel dx="2605" dy="1405" grid="1" gridSize="10" guides="1" tooltips="1" connect="1" arrows="1" fold="1" page="1" pageScale="1" pageWidth="827" pageHeight="1169" math="0" shadow="0">
      <root>
        <mxCell id="WIyWlLk6GJQsqaUBKTNV-0" />
        <mxCell id="WIyWlLk6GJQsqaUBKTNV-1" parent="WIyWlLk6GJQsqaUBKTNV-0" />
        <mxCell id="Xgtxz5VoGcM9XP3HaDzO-0" value="" style="ellipse;whiteSpace=wrap;html=1;aspect=fixed;" vertex="1" parent="WIyWlLk6GJQsqaUBKTNV-1">
          <mxGeometry x="486" y="145" width="30" height="30" as="geometry" />
        </mxCell>
        <mxCell id="Xgtxz5VoGcM9XP3HaDzO-1" value="" style="endArrow=classic;html=1;rounded=0;" edge="1" parent="WIyWlLk6GJQsqaUBKTNV-1">
          <mxGeometry width="50" height="50" relative="1" as="geometry">
            <mxPoint x="500.5" y="180" as="sourcePoint" />
            <mxPoint x="500.5" y="240" as="targetPoint" />
          </mxGeometry>
        </mxCell>
        <mxCell id="Xgtxz5VoGcM9XP3HaDzO-3" value="" style="endArrow=classic;html=1;rounded=0;exitX=0.5;exitY=1;exitDx=0;exitDy=0;" edge="1" parent="WIyWlLk6GJQsqaUBKTNV-1" target="Xgtxz5VoGcM9XP3HaDzO-4">
          <mxGeometry width="50" height="50" relative="1" as="geometry">
            <mxPoint x="501" y="360" as="sourcePoint" />
            <mxPoint x="500.5" y="440" as="targetPoint" />
          </mxGeometry>
        </mxCell>
        <mxCell id="Xgtxz5VoGcM9XP3HaDzO-4" value="" style="rhombus;whiteSpace=wrap;html=1;" vertex="1" parent="WIyWlLk6GJQsqaUBKTNV-1">
          <mxGeometry x="460.5" y="400" width="80" height="80" as="geometry" />
        </mxCell>
        <mxCell id="Xgtxz5VoGcM9XP3HaDzO-5" value="" style="endArrow=none;html=1;rounded=0;" edge="1" parent="WIyWlLk6GJQsqaUBKTNV-1">
          <mxGeometry width="50" height="50" relative="1" as="geometry">
            <mxPoint x="500.76" y="550" as="sourcePoint" />
            <mxPoint x="500.76" y="480" as="targetPoint" />
          </mxGeometry>
        </mxCell>
        <mxCell id="Xgtxz5VoGcM9XP3HaDzO-6" value="" style="endArrow=none;html=1;rounded=0;" edge="1" parent="WIyWlLk6GJQsqaUBKTNV-1">
          <mxGeometry width="50" height="50" relative="1" as="geometry">
            <mxPoint x="381" y="550" as="sourcePoint" />
            <mxPoint x="621" y="550" as="targetPoint" />
          </mxGeometry>
        </mxCell>
        <mxCell id="Xgtxz5VoGcM9XP3HaDzO-7" value="" style="endArrow=classic;html=1;rounded=0;" edge="1" parent="WIyWlLk6GJQsqaUBKTNV-1">
          <mxGeometry width="50" height="50" relative="1" as="geometry">
            <mxPoint x="621" y="550" as="sourcePoint" />
            <mxPoint x="621" y="580" as="targetPoint" />
          </mxGeometry>
        </mxCell>
        <mxCell id="Xgtxz5VoGcM9XP3HaDzO-8" value="" style="endArrow=classic;html=1;rounded=0;" edge="1" parent="WIyWlLk6GJQsqaUBKTNV-1">
          <mxGeometry width="50" height="50" relative="1" as="geometry">
            <mxPoint x="381" y="550" as="sourcePoint" />
            <mxPoint x="381" y="580" as="targetPoint" />
          </mxGeometry>
        </mxCell>
        <mxCell id="Xgtxz5VoGcM9XP3HaDzO-9" value="Si no existen los valores" style="text;html=1;align=center;verticalAlign=middle;whiteSpace=wrap;rounded=0;" vertex="1" parent="WIyWlLk6GJQsqaUBKTNV-1">
          <mxGeometry x="581" y="500" width="90" height="30" as="geometry" />
        </mxCell>
        <mxCell id="Xgtxz5VoGcM9XP3HaDzO-11" value="La aplicación verifica que existan los valores para obtener los datos de tercero" style="whiteSpace=wrap;html=1;aspect=fixed;" vertex="1" parent="WIyWlLk6GJQsqaUBKTNV-1">
          <mxGeometry x="445" y="250" width="110" height="110" as="geometry" />
        </mxCell>
        <mxCell id="Xgtxz5VoGcM9XP3HaDzO-12" value="Si existen los valores" style="text;html=1;align=center;verticalAlign=middle;whiteSpace=wrap;rounded=0;" vertex="1" parent="WIyWlLk6GJQsqaUBKTNV-1">
          <mxGeometry x="335" y="500" width="90" height="30" as="geometry" />
        </mxCell>
        <mxCell id="Xgtxz5VoGcM9XP3HaDzO-13" value="Se genera un mensaje de error" style="whiteSpace=wrap;html=1;aspect=fixed;" vertex="1" parent="WIyWlLk6GJQsqaUBKTNV-1">
          <mxGeometry x="566" y="590" width="110" height="110" as="geometry" />
        </mxCell>
        <mxCell id="Xgtxz5VoGcM9XP3HaDzO-14" value="" style="endArrow=classic;html=1;rounded=0;" edge="1" parent="WIyWlLk6GJQsqaUBKTNV-1">
          <mxGeometry width="50" height="50" relative="1" as="geometry">
            <mxPoint x="620.83" y="710" as="sourcePoint" />
            <mxPoint x="621" y="770" as="targetPoint" />
          </mxGeometry>
        </mxCell>
        <mxCell id="Xgtxz5VoGcM9XP3HaDzO-15" value="" style="ellipse;html=1;shape=endState;labelBackgroundColor=none;" vertex="1" parent="WIyWlLk6GJQsqaUBKTNV-1">
          <mxGeometry x="606" y="780" width="30" height="30" as="geometry" />
        </mxCell>
        <mxCell id="Xgtxz5VoGcM9XP3HaDzO-16" value="La aplicación lee los parámetros de configuración desde la base auxiliar" style="whiteSpace=wrap;html=1;aspect=fixed;" vertex="1" parent="WIyWlLk6GJQsqaUBKTNV-1">
          <mxGeometry x="325" y="589" width="110" height="110" as="geometry" />
        </mxCell>
        <mxCell id="Xgtxz5VoGcM9XP3HaDzO-17" value="" style="endArrow=none;html=1;rounded=0;" edge="1" parent="WIyWlLk6GJQsqaUBKTNV-1">
          <mxGeometry width="50" height="50" relative="1" as="geometry">
            <mxPoint x="377.76" y="770" as="sourcePoint" />
            <mxPoint x="377.76" y="700" as="targetPoint" />
          </mxGeometry>
        </mxCell>
        <mxCell id="Xgtxz5VoGcM9XP3HaDzO-18" value="" style="endArrow=none;html=1;rounded=0;" edge="1" parent="WIyWlLk6GJQsqaUBKTNV-1">
          <mxGeometry width="50" height="50" relative="1" as="geometry">
            <mxPoint x="261" y="770" as="sourcePoint" />
            <mxPoint x="498" y="770" as="targetPoint" />
          </mxGeometry>
        </mxCell>
        <mxCell id="Xgtxz5VoGcM9XP3HaDzO-19" value="" style="endArrow=classic;html=1;rounded=0;" edge="1" parent="WIyWlLk6GJQsqaUBKTNV-1">
          <mxGeometry width="50" height="50" relative="1" as="geometry">
            <mxPoint x="498" y="770" as="sourcePoint" />
            <mxPoint x="498" y="800" as="targetPoint" />
          </mxGeometry>
        </mxCell>
        <mxCell id="Xgtxz5VoGcM9XP3HaDzO-20" value="" style="endArrow=classic;html=1;rounded=0;" edge="1" parent="WIyWlLk6GJQsqaUBKTNV-1">
          <mxGeometry width="50" height="50" relative="1" as="geometry">
            <mxPoint x="260" y="770" as="sourcePoint" />
            <mxPoint x="260.0000000000001" y="860" as="targetPoint" />
          </mxGeometry>
        </mxCell>
        <mxCell id="Xgtxz5VoGcM9XP3HaDzO-22" value="Si la aplicación leyó los parámetros" style="text;html=1;align=center;verticalAlign=middle;whiteSpace=wrap;rounded=0;" vertex="1" parent="WIyWlLk6GJQsqaUBKTNV-1">
          <mxGeometry x="201" y="730" width="121" height="30" as="geometry" />
        </mxCell>
        <mxCell id="Xgtxz5VoGcM9XP3HaDzO-23" value="Si la aplicación no leyó los parámetros" style="text;html=1;align=center;verticalAlign=middle;whiteSpace=wrap;rounded=0;" vertex="1" parent="WIyWlLk6GJQsqaUBKTNV-1">
          <mxGeometry x="434" y="730" width="121" height="30" as="geometry" />
        </mxCell>
        <mxCell id="Xgtxz5VoGcM9XP3HaDzO-24" value="Se interrumpe el flujo del programa" style="whiteSpace=wrap;html=1;aspect=fixed;" vertex="1" parent="WIyWlLk6GJQsqaUBKTNV-1">
          <mxGeometry x="440" y="810" width="110" height="110" as="geometry" />
        </mxCell>
        <mxCell id="Xgtxz5VoGcM9XP3HaDzO-26" value="" style="rhombus;whiteSpace=wrap;html=1;" vertex="1" parent="WIyWlLk6GJQsqaUBKTNV-1">
          <mxGeometry x="220.5" y="1040" width="80" height="80" as="geometry" />
        </mxCell>
        <mxCell id="Xgtxz5VoGcM9XP3HaDzO-27" value="" style="endArrow=none;html=1;rounded=0;" edge="1" parent="WIyWlLk6GJQsqaUBKTNV-1">
          <mxGeometry width="50" height="50" relative="1" as="geometry">
            <mxPoint x="141.07999999999998" y="1160" as="sourcePoint" />
            <mxPoint x="381.08" y="1160" as="targetPoint" />
          </mxGeometry>
        </mxCell>
        <mxCell id="Xgtxz5VoGcM9XP3HaDzO-28" value="" style="endArrow=classic;html=1;rounded=0;" edge="1" parent="WIyWlLk6GJQsqaUBKTNV-1">
          <mxGeometry width="50" height="50" relative="1" as="geometry">
            <mxPoint x="381.08" y="1160" as="sourcePoint" />
            <mxPoint x="381" y="1200" as="targetPoint" />
          </mxGeometry>
        </mxCell>
        <mxCell id="Xgtxz5VoGcM9XP3HaDzO-29" value="" style="endArrow=classic;html=1;rounded=0;" edge="1" parent="WIyWlLk6GJQsqaUBKTNV-1">
          <mxGeometry width="50" height="50" relative="1" as="geometry">
            <mxPoint x="141.07999999999998" y="1160" as="sourcePoint" />
            <mxPoint x="141" y="1200" as="targetPoint" />
          </mxGeometry>
        </mxCell>
        <mxCell id="Xgtxz5VoGcM9XP3HaDzO-30" value="" style="endArrow=none;html=1;rounded=0;" edge="1" parent="WIyWlLk6GJQsqaUBKTNV-1">
          <mxGeometry width="50" height="50" relative="1" as="geometry">
            <mxPoint x="261" y="1160" as="sourcePoint" />
            <mxPoint x="261" y="1120" as="targetPoint" />
          </mxGeometry>
        </mxCell>
        <mxCell id="Xgtxz5VoGcM9XP3HaDzO-34" value="" style="endArrow=classic;html=1;rounded=0;" edge="1" parent="WIyWlLk6GJQsqaUBKTNV-1">
          <mxGeometry width="50" height="50" relative="1" as="geometry">
            <mxPoint x="494.83000000000004" y="930" as="sourcePoint" />
            <mxPoint x="495" y="990" as="targetPoint" />
          </mxGeometry>
        </mxCell>
        <mxCell id="Xgtxz5VoGcM9XP3HaDzO-35" value="" style="ellipse;html=1;shape=endState;labelBackgroundColor=none;" vertex="1" parent="WIyWlLk6GJQsqaUBKTNV-1">
          <mxGeometry x="480" y="1000" width="30" height="30" as="geometry" />
        </mxCell>
        <mxCell id="Xgtxz5VoGcM9XP3HaDzO-36" value="si obtengo cuit" style="text;html=1;align=center;verticalAlign=middle;whiteSpace=wrap;rounded=0;" vertex="1" parent="WIyWlLk6GJQsqaUBKTNV-1">
          <mxGeometry x="315" y="1120" width="130" height="30" as="geometry" />
        </mxCell>
        <mxCell id="Xgtxz5VoGcM9XP3HaDzO-37" value="si obtengo el id del tercero" style="text;html=1;align=center;verticalAlign=middle;whiteSpace=wrap;rounded=0;" vertex="1" parent="WIyWlLk6GJQsqaUBKTNV-1">
          <mxGeometry x="101" y="1120" width="130" height="30" as="geometry" />
        </mxCell>
        <mxCell id="Xgtxz5VoGcM9XP3HaDzO-38" value="Determinar método de comprobación según el parámetro obtenido" style="whiteSpace=wrap;html=1;aspect=fixed;" vertex="1" parent="WIyWlLk6GJQsqaUBKTNV-1">
          <mxGeometry x="210.5" y="860" width="100" height="100" as="geometry" />
        </mxCell>
        <mxCell id="Xgtxz5VoGcM9XP3HaDzO-39" value="" style="endArrow=classic;html=1;rounded=0;exitX=0.5;exitY=1;exitDx=0;exitDy=0;" edge="1" parent="WIyWlLk6GJQsqaUBKTNV-1" source="Xgtxz5VoGcM9XP3HaDzO-38">
          <mxGeometry width="50" height="50" relative="1" as="geometry">
            <mxPoint x="260" y="970" as="sourcePoint" />
            <mxPoint x="260" y="1040" as="targetPoint" />
          </mxGeometry>
        </mxCell>
        <mxCell id="Xgtxz5VoGcM9XP3HaDzO-41" value="Obtengo los datos del tercero por el cuit" style="whiteSpace=wrap;html=1;aspect=fixed;" vertex="1" parent="WIyWlLk6GJQsqaUBKTNV-1">
          <mxGeometry x="340" y="1210" width="80" height="80" as="geometry" />
        </mxCell>
        <mxCell id="Xgtxz5VoGcM9XP3HaDzO-46" value="Obtengo los datos del tercero por el idauxi" style="whiteSpace=wrap;html=1;aspect=fixed;" vertex="1" parent="WIyWlLk6GJQsqaUBKTNV-1">
          <mxGeometry x="101" y="1210" width="80" height="80" as="geometry" />
        </mxCell>
        <mxCell id="Xgtxz5VoGcM9XP3HaDzO-47" style="edgeStyle=orthogonalEdgeStyle;rounded=0;orthogonalLoop=1;jettySize=auto;html=1;exitX=0.5;exitY=1;exitDx=0;exitDy=0;" edge="1" parent="WIyWlLk6GJQsqaUBKTNV-1" source="Xgtxz5VoGcM9XP3HaDzO-46" target="Xgtxz5VoGcM9XP3HaDzO-46">
          <mxGeometry relative="1" as="geometry" />
        </mxCell>
        <mxCell id="Xgtxz5VoGcM9XP3HaDzO-48" value="" style="endArrow=none;html=1;rounded=0;" edge="1" parent="WIyWlLk6GJQsqaUBKTNV-1">
          <mxGeometry width="50" height="50" relative="1" as="geometry">
            <mxPoint x="141" y="1360" as="sourcePoint" />
            <mxPoint x="140.57999999999998" y="1290" as="targetPoint" />
          </mxGeometry>
        </mxCell>
        <mxCell id="Xgtxz5VoGcM9XP3HaDzO-49" value="" style="endArrow=none;html=1;rounded=0;" edge="1" parent="WIyWlLk6GJQsqaUBKTNV-1">
          <mxGeometry width="50" height="50" relative="1" as="geometry">
            <mxPoint x="380.71" y="1360" as="sourcePoint" />
            <mxPoint x="380.71" y="1290" as="targetPoint" />
          </mxGeometry>
        </mxCell>
        <mxCell id="Xgtxz5VoGcM9XP3HaDzO-50" value="" style="endArrow=none;html=1;rounded=0;" edge="1" parent="WIyWlLk6GJQsqaUBKTNV-1">
          <mxGeometry width="50" height="50" relative="1" as="geometry">
            <mxPoint x="141" y="1360" as="sourcePoint" />
            <mxPoint x="381" y="1360" as="targetPoint" />
          </mxGeometry>
        </mxCell>
        <mxCell id="Xgtxz5VoGcM9XP3HaDzO-51" value="" style="endArrow=classic;html=1;rounded=0;" edge="1" parent="WIyWlLk6GJQsqaUBKTNV-1" target="Xgtxz5VoGcM9XP3HaDzO-52">
          <mxGeometry width="50" height="50" relative="1" as="geometry">
            <mxPoint x="261.21" y="1360" as="sourcePoint" />
            <mxPoint x="261.21" y="1410" as="targetPoint" />
          </mxGeometry>
        </mxCell>
        <mxCell id="Xgtxz5VoGcM9XP3HaDzO-52" value="verifica que el tercero no esta dado de baja" style="whiteSpace=wrap;html=1;aspect=fixed;" vertex="1" parent="WIyWlLk6GJQsqaUBKTNV-1">
          <mxGeometry x="210.5" y="1410" width="100" height="100" as="geometry" />
        </mxCell>
        <mxCell id="Xgtxz5VoGcM9XP3HaDzO-53" value="" style="endArrow=none;html=1;rounded=0;" edge="1" parent="WIyWlLk6GJQsqaUBKTNV-1">
          <mxGeometry width="50" height="50" relative="1" as="geometry">
            <mxPoint x="140.57999999999998" y="1580" as="sourcePoint" />
            <mxPoint x="380.58" y="1580" as="targetPoint" />
          </mxGeometry>
        </mxCell>
        <mxCell id="Xgtxz5VoGcM9XP3HaDzO-54" value="" style="endArrow=classic;html=1;rounded=0;" edge="1" parent="WIyWlLk6GJQsqaUBKTNV-1">
          <mxGeometry width="50" height="50" relative="1" as="geometry">
            <mxPoint x="380.58" y="1580" as="sourcePoint" />
            <mxPoint x="380.5" y="1620" as="targetPoint" />
          </mxGeometry>
        </mxCell>
        <mxCell id="Xgtxz5VoGcM9XP3HaDzO-55" value="" style="endArrow=classic;html=1;rounded=0;" edge="1" parent="WIyWlLk6GJQsqaUBKTNV-1">
          <mxGeometry width="50" height="50" relative="1" as="geometry">
            <mxPoint x="140.57999999999998" y="1580" as="sourcePoint" />
            <mxPoint x="140.5" y="1620" as="targetPoint" />
          </mxGeometry>
        </mxCell>
        <mxCell id="Xgtxz5VoGcM9XP3HaDzO-56" value="" style="endArrow=none;html=1;rounded=0;entryX=0.5;entryY=1;entryDx=0;entryDy=0;" edge="1" parent="WIyWlLk6GJQsqaUBKTNV-1" target="Xgtxz5VoGcM9XP3HaDzO-52">
          <mxGeometry width="50" height="50" relative="1" as="geometry">
            <mxPoint x="260.5" y="1580" as="sourcePoint" />
            <mxPoint x="260.5" y="1540" as="targetPoint" />
          </mxGeometry>
        </mxCell>
        <mxCell id="Xgtxz5VoGcM9XP3HaDzO-58" value="si el tercero no esta dado de baja" style="text;html=1;align=center;verticalAlign=middle;whiteSpace=wrap;rounded=0;" vertex="1" parent="WIyWlLk6GJQsqaUBKTNV-1">
          <mxGeometry x="80" y="1540" width="130" height="30" as="geometry" />
        </mxCell>
        <mxCell id="Xgtxz5VoGcM9XP3HaDzO-59" value="si el tercero esta dado de baja" style="text;html=1;align=center;verticalAlign=middle;whiteSpace=wrap;rounded=0;" vertex="1" parent="WIyWlLk6GJQsqaUBKTNV-1">
          <mxGeometry x="310" y="1540" width="130" height="30" as="geometry" />
        </mxCell>
        <mxCell id="Xgtxz5VoGcM9XP3HaDzO-60" value="Se genera un mensaje de error" style="whiteSpace=wrap;html=1;aspect=fixed;" vertex="1" parent="WIyWlLk6GJQsqaUBKTNV-1">
          <mxGeometry x="324.5" y="1630" width="110" height="110" as="geometry" />
        </mxCell>
        <mxCell id="Xgtxz5VoGcM9XP3HaDzO-61" value="" style="endArrow=classic;html=1;rounded=0;" edge="1" parent="WIyWlLk6GJQsqaUBKTNV-1">
          <mxGeometry width="50" height="50" relative="1" as="geometry">
            <mxPoint x="379.33000000000004" y="1750" as="sourcePoint" />
            <mxPoint x="379.5" y="1810" as="targetPoint" />
          </mxGeometry>
        </mxCell>
        <mxCell id="Xgtxz5VoGcM9XP3HaDzO-62" value="" style="ellipse;html=1;shape=endState;labelBackgroundColor=none;" vertex="1" parent="WIyWlLk6GJQsqaUBKTNV-1">
          <mxGeometry x="364.5" y="1820" width="30" height="30" as="geometry" />
        </mxCell>
        <mxCell id="Xgtxz5VoGcM9XP3HaDzO-64" value="Se cargan los datos del comprobante" style="whiteSpace=wrap;html=1;aspect=fixed;" vertex="1" parent="WIyWlLk6GJQsqaUBKTNV-1">
          <mxGeometry x="83" y="1632" width="110" height="110" as="geometry" />
        </mxCell>
        <mxCell id="Xgtxz5VoGcM9XP3HaDzO-65" value="" style="endArrow=classic;html=1;rounded=0;" edge="1" parent="WIyWlLk6GJQsqaUBKTNV-1">
          <mxGeometry width="50" height="50" relative="1" as="geometry">
            <mxPoint x="137.83000000000004" y="1752" as="sourcePoint" />
            <mxPoint x="138" y="1812" as="targetPoint" />
          </mxGeometry>
        </mxCell>
        <mxCell id="Xgtxz5VoGcM9XP3HaDzO-66" value="" style="ellipse;html=1;shape=endState;labelBackgroundColor=none;" vertex="1" parent="WIyWlLk6GJQsqaUBKTNV-1">
          <mxGeometry x="123" y="1822" width="30" height="30" as="geometry" />
        </mxCell>
      </root>
    </mxGraphModel>
  </diagram>
</mxfile>
